<?xml version="1.0" encoding="UTF-8" standalone="no"?><svg xmlns="http://www.w3.org/2000/svg" xmlns:xlink="http://www.w3.org/1999/xlink" contentStyleType="text/css" height="277px" preserveAspectRatio="none" style="width:205px;height:277px;background:#FFFFFF;" version="1.1" viewBox="0 0 205 277" width="205px" zoomAndPan="magnify"><defs/><g><ellipse cx="106" cy="20" fill="#222222" rx="10" ry="10" style="stroke:#222222;stroke-width:1.0;"/><rect fill="#F1F1F1" height="36.3887" rx="12.5" ry="12.5" style="stroke:#181818;stroke-width:0.5;" width="64" x="74" y="94"/><text fill="#000000" font-family="sans-serif" font-size="12" lengthAdjust="spacing" textLength="44" x="84" y="117.752">poll阻塞</text><rect fill="#F1F1F1" height="36.3887" rx="12.5" ry="12.5" style="stroke:#181818;stroke-width:0.5;" width="122" x="45" y="150.3887"/><text fill="#000000" font-family="sans-serif" font-size="12" lengthAdjust="spacing" textLength="102" x="55" y="174.1406">处理activeChannel</text><rect fill="#F1F1F1" height="36.3887" rx="12.5" ry="12.5" style="stroke:#181818;stroke-width:0.5;" width="92" x="60" y="206.7773"/><text fill="#000000" font-family="sans-serif" font-size="12" lengthAdjust="spacing" textLength="72" x="70" y="230.5293">处理用户任务</text><polygon fill="#F1F1F1" points="76.5,50,135.5,50,147.5,62,135.5,74,76.5,74,64.5,62,76.5,50" style="stroke:#181818;stroke-width:0.5;"/><text fill="#000000" font-family="sans-serif" font-size="11" lengthAdjust="spacing" textLength="59" x="76.5" y="67.0945">quit == false</text><ellipse cx="24" cy="105" fill="none" rx="11" ry="11" style="stroke:#222222;stroke-width:1.0;"/><ellipse cx="24" cy="105" fill="#222222" rx="6" ry="6" style="stroke:#111111;stroke-width:1.0;"/><line style="stroke:#181818;stroke-width:1.0;" x1="106" x2="106" y1="130.3887" y2="150.3887"/><polygon fill="#181818" points="102,140.3887,106,150.3887,110,140.3887,106,144.3887" style="stroke:#181818;stroke-width:1.0;"/><line style="stroke:#181818;stroke-width:1.0;" x1="106" x2="106" y1="186.7773" y2="206.7773"/><polygon fill="#181818" points="102,196.7773,106,206.7773,110,196.7773,106,200.7773" style="stroke:#181818;stroke-width:1.0;"/><line style="stroke:#181818;stroke-width:1.0;" x1="106" x2="106" y1="74" y2="94"/><polygon fill="#181818" points="102,84,106,94,110,84,106,88" style="stroke:#181818;stroke-width:1.0;"/><line style="stroke:#181818;stroke-width:1.0;" x1="106" x2="106" y1="243.166" y2="253.166"/><line style="stroke:#181818;stroke-width:1.0;" x1="106" x2="179" y1="253.166" y2="253.166"/><polygon fill="#181818" points="175,166.583,179,156.583,183,166.583,179,162.583" style="stroke:#181818;stroke-width:1.0;"/><line style="stroke:#181818;stroke-width:1.0;" x1="179" x2="179" y1="62" y2="253.166"/><line style="stroke:#181818;stroke-width:1.0;" x1="179" x2="147.5" y1="62" y2="62"/><polygon fill="#181818" points="157.5,58,147.5,62,157.5,66,153.5,62" style="stroke:#181818;stroke-width:1.0;"/><line style="stroke:#181818;stroke-width:1.0;" x1="64.5" x2="24" y1="62" y2="62"/><line style="stroke:#181818;stroke-width:1.0;" x1="24" x2="24" y1="62" y2="94"/><polygon fill="#181818" points="20,84,24,94,28,84,24,88" style="stroke:#181818;stroke-width:1.0;"/><line style="stroke:#181818;stroke-width:1.0;" x1="106" x2="106" y1="30" y2="50"/><polygon fill="#181818" points="102,40,106,50,110,40,106,44" style="stroke:#181818;stroke-width:1.0;"/><!--MD5=[ec4bc8f398972e6f1537ec9c42890773]
@startuml EventLoop

start 

while (quit == false)
  :poll阻塞;
  :处理activeChannel;
  :处理用户任务;
endwhile

stop


@enduml

PlantUML version 1.2022.7(Tue Aug 23 01:01:30 CST 2022)
(GPL source distribution)
Java Runtime: Java(TM) SE Runtime Environment
JVM: Java HotSpot(TM) 64-Bit Server VM
Default Encoding: GBK
Language: zh
Country: CN
--></g></svg>